<?xml version="1.0" ?>
<!DOCTYPE svg  PUBLIC '-//W3C//DTD SVG 1.1//EN'  'http://www.w3.org/Graphics/SVG/1.1/DTD/svg11.dtd'>
<!-- Uploaded to: SVG Repo, www.svgrepo.com, Generator: SVG Repo Mixer Tools -->
<svg fill="#000000" width="800px" height="800px" viewBox="0 0 846.66 846.66" style="shape-rendering:geometricPrecision; text-rendering:geometricPrecision; image-rendering:optimizeQuality; fill-rule:evenodd; clip-rule:evenodd" version="1.1" xml:space="preserve" xmlns="http://www.w3.org/2000/svg" xmlns:xlink="http://www.w3.org/1999/xlink">
<defs>
<style type="text/css">
   <![CDATA[
    .fil0 {fill:black;fill-rule:nonzero}
   ]]>
  </style>
</defs>
<g id="Layer_x0020_1">
<path class="fil0" d="M423.33 8.29c229.22,0 415.04,185.82 415.04,415.04 0,229.22 -185.82,415.04 -415.04,415.04 -229.22,0 -415.04,-185.82 -415.04,-415.04 0,-229.22 185.82,-415.04 415.04,-415.04zm372.96 435.79l-52.32 0c-27.3,0 -27.3,-41.5 0,-41.5l52.32 0c-10.39,-189.79 -162.42,-341.82 -352.21,-352.21l0 52.32c0,27.3 -41.5,27.3 -41.5,0l0 -52.32c-189.79,10.39 -341.82,162.42 -352.21,352.21l52.32 0c27.3,0 27.3,41.5 0,41.5l-52.32 0c10.39,189.79 162.42,341.82 352.21,352.21l0 -52.32c0,-27.3 41.5,-27.3 41.5,0l0 52.32c189.79,-10.39 341.82,-162.42 352.21,-352.21zm-469.14 -137.68l192.36 0c11.46,0 20.75,9.29 20.75,20.75l0 192.36c0,11.46 -9.29,20.75 -20.75,20.75l-192.36 0c-11.46,0 -20.75,-9.29 -20.75,-20.75l0 -192.36c0,-11.46 9.29,-20.75 20.75,-20.75zm171.6 41.51l-150.84 0 0 150.84 150.84 0 0 -150.84z"/>
</g>
</svg>